<?xml version="1.0" standalone="no"?>
<svg
  width="600"
  height="600"
  viewBox="0 0 600 600"
  xmlns="http://www.w3.org/2000/svg"
>
  <g transform="translate(300,300)">
    <path d="M99,-125.7C140.7,-127.3,195.4,-120.7,229.4,-91.5C263.4,-62.3,276.7,-10.3,260.5,30.8C244.2,71.9,198.4,102.1,162.4,136.9C126.3,171.7,99.9,211,68.3,209.9C36.7,208.8,-0.1,167.3,-44.5,153.4C-88.8,139.5,-140.8,153.2,-174.6,138C-208.3,122.8,-223.9,78.6,-222.7,36.7C-221.5,-5.3,-203.6,-45,-173.4,-65.9C-143.2,-86.8,-100.8,-88.8,-69.9,-92.2C-38.9,-95.6,-19.5,-100.3,4.6,-107.4C28.7,-114.6,57.3,-124.2,99,-125.7Z" fill="#6a5acd" />
  </g>
</svg>
  